<svg xmlns="http://www.w3.org/2000/svg" viewBox="0 0 400 600">
  <defs>
    <linearGradient id="bg" x1="0" y1="0" x2="1" y2="1"><stop offset="0" stop-color="#0c1530"/><stop offset="1" stop-color="#22306a"/></linearGradient>
    <radialGradient id="ball" cx=".38" cy=".34" r=".75"><stop offset="0" stop-color="#ffb066"/><stop offset=".55" stop-color="#ec7a2a"/><stop offset="1" stop-color="#b8510f"/></radialGradient>
  </defs>
  <rect width="400" height="600" fill="url(#bg)"/>
  <path d="M40 160 Q140 60 286 150" fill="none" stroke="#ffffff" stroke-opacity=".35" stroke-width="3" stroke-dasharray="2 10" stroke-linecap="round"/>
  <rect x="262" y="118" width="96" height="62" rx="3" fill="none" stroke="#ffffff" stroke-opacity=".75" stroke-width="3"/>
  <rect x="292" y="146" width="36" height="26" fill="none" stroke="#ffffff" stroke-opacity=".75" stroke-width="2.5"/>
  <ellipse cx="310" cy="184" rx="27" ry="6" fill="none" stroke="#ff7a2f" stroke-width="4"/>
  <path d="M285 186 L294 222 M297 189 L301 224 M310 190 L310 226 M323 189 L319 224 M335 186 L326 222 M290 204 Q310 212 330 204" fill="none" stroke="#ffffff" stroke-opacity=".7" stroke-width="1.6"/>
  <circle cx="190" cy="390" r="148" fill="url(#ball)"/>
  <g fill="none" stroke="#3a1d08" stroke-width="5.5" stroke-linecap="round">
    <path d="M190 242 V538"/><path d="M42 390 H338"/>
    <path d="M96 276 Q150 390 96 504"/><path d="M284 276 Q230 390 284 504"/>
  </g>
  <circle cx="190" cy="390" r="148" fill="none" stroke="#3a1d08" stroke-width="4"/>
  <text x="200" y="66" text-anchor="middle" fill="#ffffff" font-family="-apple-system, 'Helvetica Neue', Helvetica, Arial, sans-serif" font-size="21.5" font-weight="800" letter-spacing="2.2">TEN YEARS ON THE COURT</text>
  <text x="200" y="92" text-anchor="middle" fill="#ffffff" fill-opacity=".75" font-family="-apple-system, 'Helvetica Neue', Helvetica, Arial, sans-serif" font-size="11.5" font-weight="600" letter-spacing="4">BASKETBALL · CLUB CHAMPIONS</text>
</svg>
