<svg xmlns="http://www.w3.org/2000/svg" viewBox="0 0 400 600">
  <defs>
    <linearGradient id="beam" x1="0" y1="0" x2="0" y2="1"><stop offset="0" stop-color="#fff2fb" stop-opacity=".55"/><stop offset="1" stop-color="#fff2fb" stop-opacity=".05"/></linearGradient>
    <radialGradient id="pool" cx=".5" cy=".5" r=".5"><stop offset="0" stop-color="#ffd6f2" stop-opacity=".55"/><stop offset="1" stop-color="#ffd6f2" stop-opacity="0"/></radialGradient>
  </defs>
  <rect width="400" height="600" fill="#0c0718"/>
  <path d="M184 120 H216 L330 520 H70Z" fill="url(#beam)"/>
  <ellipse cx="200" cy="520" rx="150" ry="34" fill="url(#pool)"/>
  <g fill="none" stroke-linecap="round" stroke-width="7">
    <path d="M70 430 C120 300 260 420 300 270 S220 150 330 170" stroke="#ff4fb3"/>
    <path d="M60 470 C150 380 230 470 320 360" stroke="#5ad7ff"/>
    <path d="M110 250 C170 210 200 300 270 230" stroke="#ffd34f" stroke-width="5"/>
  </g>
  <g fill="#ffffff">
    <circle cx="96" cy="190" r="2.5"/><circle cx="318" cy="120" r="2"/><circle cx="342" cy="300" r="2.5"/><circle cx="58" cy="330" r="2"/>
    <path d="M300 410 l4 10 10 4 -10 4 -4 10 -4 -10 -10 -4 10 -4Z"/><path d="M118 362 l3 7 7 3 -7 3 -3 7 -3 -7 -7 -3 7 -3Z"/>
  </g>
  <text x="200" y="548" text-anchor="middle" fill="#ffffff" fill-opacity=".14" font-family="-apple-system, 'Helvetica Neue', Helvetica, Arial, sans-serif" font-size="92" font-weight="900">5·6·7·8</text>
  <text x="200" y="74" text-anchor="middle" fill="#fff0fa" font-family="-apple-system, 'Helvetica Neue', Helvetica, Arial, sans-serif" font-size="27" font-weight="800" letter-spacing="4.5">A COUNT OF EIGHT</text>
  <text x="200" y="102" text-anchor="middle" fill="#fff0fa" fill-opacity=".8" font-family="-apple-system, 'Helvetica Neue', Helvetica, Arial, sans-serif" font-size="11.5" font-weight="600" letter-spacing="4">DANCE · LEAD DANCER</text>
</svg>
